# xmcd
#
# Track frame offsets:
#	150
#	10037
#	27947
#	42077
#	60177
#	76122
#	94147
#	106330
#	122845
#	141577
#
# Disc length: 2049
#
# Revision: 2
# Processed by: cddbd v1.5.1PL0 Copyright (c) Steve Scherf et al.
# Submitted via: DiscPlay 4.0.2
# Normalized: r1:DSETVAR1
#
DISCID=7407ff0a
DTITLE=Various Artist - New Country Volume 4 No. 1
DYEAR=1900
DGENRE=
TTITLE0=Barbara Lamb - Forked Deer
TTITLE1=Dolly Parton - Today I Started Loving You Again
TTITLE2=Harley Allan - Boy She Did
TTITLE3=Beth and April Stevens - What About Me
TTITLE4=Tony Toliver - He's on the Way Home
TTITLE5=Charlie Major - It Can't Happen to Me
TTITLE6=Kathy Kallick - Call Me A Taxi
TTITLE7=Kate MacKenzie - Carolina
TTITLE8=Salamander Crossing - Passion Train
TTITLE9=John Hartford - Wild Hog in the Red Brush
EXTD=
EXTT0=
EXTT1=
EXTT2=
EXTT3=
EXTT4=
EXTT5=
EXTT6=
EXTT7=
EXTT8=
EXTT9=
PLAYORDER=
